<svg width="66" height="65" viewBox="0 0 66 65" fill="none" xmlns="http://www.w3.org/2000/svg">
<path fill-rule="evenodd" clip-rule="evenodd" d="M26.0001 25.3441V24H41V25.3441H34.6305C35.8878 26.3443 36.6935 27.7935 36.8723 29.3763H41V30.7204H36.8723C36.7046 32.1992 35.9897 33.5651 34.8644 34.557C33.7391 35.5488 32.2824 36.0971 30.7728 36.0968H28.5255L36.6705 42.9785L35.7841 44L26.2387 35.9355C26.1328 35.8462 26.0571 35.727 26.022 35.5941C25.9869 35.4611 25.9939 35.3208 26.0422 35.1919C26.0905 35.063 26.1777 34.9518 26.2921 34.8733C26.4064 34.7948 26.5425 34.7527 26.6819 34.7527H30.7728C31.9206 34.753 33.0302 34.3455 33.898 33.6049C34.7658 32.8643 35.3338 31.8403 35.4977 30.7204H26.0001V29.3763H35.4977C35.3338 28.2565 34.7658 27.2325 33.898 26.4919C33.0302 25.7513 31.9206 25.3438 30.7728 25.3441H26.0001Z" fill="black"/>
<path d="M63.7963 23.29C63.0983 21.086 61.4893 19.283 59.2663 18.04C59.3343 15.457 58.5773 13.177 57.0273 11.454C55.5223 9.779 53.4253 8.789 50.9183 8.546C49.9583 6.32 48.4223 4.571 46.3463 3.629C45.2483 3.132 44.0603 2.88 42.8133 2.88C41.6723 2.88 40.5203 3.098 39.3823 3.488C37.5543 1.761 35.3673 0.75 33.0173 0.75C30.7383 0.75 28.6183 1.708 26.8253 3.338C25.7193 2.966 24.5973 2.759 23.4853 2.759C22.2803 2.759 21.1283 2.996 20.0593 3.465C17.9733 4.38 16.4153 6.109 15.4273 8.32C12.9143 8.531 10.8023 9.498 9.27731 11.152C7.68731 12.878 6.95031 15.166 6.97831 17.674C4.72931 18.882 3.10231 20.672 2.36331 22.905C1.65531 25.047 1.85331 27.369 2.87731 29.647C1.41831 31.586 0.661309 33.791 0.874309 36.063C1.09331 38.388 2.31331 40.474 4.21631 42.143C3.61431 44.599 3.81931 47.012 4.99131 49.062C6.10931 51.016 7.97931 52.424 10.3483 53.187C10.8153 55.569 11.9483 57.606 13.7813 58.966C15.2783 60.076 17.1453 60.662 19.1823 60.662C19.6373 60.662 20.0963 60.625 20.5573 60.571C21.9793 62.645 23.9033 64.096 26.2013 64.593C26.7773 64.718 27.3683 64.781 27.9593 64.781C29.4303 64.781 30.8793 64.405 32.2533 63.717L33 63.5L33.7533 63.862C35.0543 64.492 36.4143 64.843 37.7883 64.843C38.3433 64.843 38.8993 64.787 39.4423 64.677C41.7463 64.209 43.6883 62.782 45.1353 60.726C45.6413 60.792 46.1443 60.834 46.6423 60.834C48.6253 60.834 50.4543 60.27 51.9303 59.203C53.7813 57.865 54.9403 55.84 55.4363 53.462C57.8133 52.727 59.7053 51.345 60.8443 49.411C62.0163 47.419 62.3063 45.041 61.7313 42.531C63.6423 40.889 64.8713 38.812 65.1223 36.464C65.3623 34.222 64.6783 31.993 63.1973 29.983C64.2103 27.779 64.4853 25.465 63.7963 23.29ZM59.1133 19.69C60.7033 20.72 61.8463 22.101 62.3663 23.742C62.8743 25.347 62.7553 27.048 62.1333 28.71C61.8073 28.37 61.4573 28.038 61.0813 27.716C59.9413 26.74 58.6213 25.906 57.1773 25.218C57.9443 23.815 58.5263 22.365 58.8783 20.908C58.9793 20.497 59.0513 20.092 59.1133 19.69ZM46.4243 44.513C46.1883 44.783 45.9513 45.054 45.6993 45.31C45.5493 45.462 45.3893 45.602 45.2353 45.749C44.0473 46.872 42.7133 47.835 41.2543 48.601C40.9893 48.74 40.7163 48.866 40.4433 48.992C40.2013 49.104 39.9613 49.217 39.7143 49.318C39.4353 49.432 39.1493 49.53 38.8633 49.63C37.3583 50.156 35.7653 50.481 34.1093 50.584C33.8763 50.599 33.6423 50.614 33.4063 50.62C33.2703 50.623 33.1373 50.641 33.0013 50.641C32.8013 50.641 32.6063 50.618 32.4083 50.611C32.1733 50.604 31.9393 50.592 31.7063 50.576C30.0483 50.456 28.4573 50.108 26.9553 49.564C26.6763 49.463 26.3923 49.372 26.1203 49.257C25.8683 49.151 25.6273 49.024 25.3803 48.907C25.1143 48.781 24.8443 48.663 24.5863 48.524C23.1243 47.739 21.7903 46.751 20.6073 45.606C20.4603 45.463 20.3173 45.319 20.1753 45.172C19.9193 44.906 19.6703 44.633 19.4303 44.352C19.3023 44.202 19.1783 44.05 19.0553 43.896C18.0093 42.583 17.1423 41.125 16.4953 39.55C16.4033 39.325 16.3273 39.093 16.2443 38.864C16.1313 38.553 16.0153 38.244 15.9193 37.925C15.8523 37.703 15.8033 37.474 15.7453 37.249C15.3773 35.824 15.1613 34.338 15.1613 32.8C15.1613 32.558 15.1883 32.322 15.1973 32.082C15.2023 31.955 15.2093 31.828 15.2173 31.702C15.2443 31.251 15.2873 30.805 15.3483 30.364C15.3653 30.242 15.3843 30.121 15.4043 30C15.6883 28.208 16.2373 26.506 17.0143 24.932C17.0933 24.772 17.1633 24.607 17.2473 24.45C17.4383 24.091 17.6513 23.747 17.8653 23.403C17.9523 23.262 18.0323 23.117 18.1233 22.979C19.0883 21.521 20.2583 20.212 21.5973 19.096C21.7083 19.003 21.8273 18.919 21.9403 18.828C22.2863 18.554 22.6353 18.283 23.0013 18.035C23.1163 17.956 23.2393 17.889 23.3563 17.814C24.8873 16.825 26.5783 16.071 28.3823 15.586C28.5083 15.552 28.6353 15.519 28.7633 15.488C29.2013 15.381 29.6463 15.29 30.0963 15.216C30.2243 15.195 30.3533 15.175 30.4833 15.157C31.3093 15.039 32.1463 14.958 33.0043 14.958C33.9493 14.958 34.8703 15.053 35.7753 15.196C35.9053 15.217 36.0363 15.233 36.1663 15.256C36.6133 15.337 37.0523 15.439 37.4873 15.552C37.6173 15.586 37.7483 15.615 37.8773 15.653C39.6683 16.163 41.3473 16.935 42.8623 17.944C42.9203 17.983 42.9793 18.02 43.0373 18.059C43.4593 18.347 43.8673 18.653 44.2613 18.975C44.3213 19.023 44.3793 19.073 44.4383 19.122C45.8213 20.28 47.0183 21.647 47.9993 23.169C48.0963 23.319 48.1853 23.474 48.2773 23.627C48.4833 23.968 48.6813 24.312 48.8643 24.668C48.9483 24.832 49.0253 25 49.1043 25.167C49.8523 26.737 50.3743 28.43 50.6353 30.21C50.6553 30.345 50.6803 30.478 50.6973 30.613C50.7503 31.041 50.7793 31.476 50.8013 31.913C50.8083 32.051 50.8183 32.189 50.8223 32.328C50.8263 32.488 50.8463 32.643 50.8463 32.803C50.8463 34.412 50.6133 35.964 50.2113 37.448C50.1483 37.681 50.0983 37.919 50.0253 38.149C49.9283 38.456 49.8073 38.752 49.6943 39.051C49.6053 39.288 49.5293 39.53 49.4313 39.762C48.7693 41.318 47.8903 42.758 46.8373 44.052C46.7033 44.207 46.5613 44.356 46.4243 44.513ZM46.4293 51.846C44.8993 51.405 43.3773 50.759 41.9193 49.943C43.4483 49.145 44.8513 48.143 46.1073 46.981C46.4063 48.652 46.5073 50.289 46.4293 51.846ZM39.4193 51.021C39.0263 52.673 38.4633 54.231 37.7553 55.641C36.5273 54.622 35.3773 53.42 34.3593 52.07C36.1233 51.947 37.8173 51.587 39.4193 51.021ZM31.4283 52.06C30.3863 53.407 29.2283 54.596 27.9983 55.597C27.3093 54.179 26.7663 52.613 26.3923 50.952C27.9863 51.534 29.6713 51.917 31.4283 52.06ZM23.8793 49.845C22.4203 50.635 20.8983 51.254 19.3703 51.674C19.3113 50.126 19.4313 48.503 19.7483 46.847C20.9863 48.016 22.3673 49.033 23.8793 49.845ZM13.5583 30.834C11.7373 31.879 10.1413 33.123 8.78731 34.479C7.57531 33.559 6.51131 32.528 5.65431 31.401C5.25731 30.879 4.92831 30.349 4.63731 29.818C5.90931 28.388 7.65031 27.15 9.72231 26.217C10.7393 27.841 12.0163 29.41 13.5583 30.834ZM11.1303 25.651C12.4893 25.164 13.9583 24.805 15.5073 24.599C14.8293 26.039 14.3173 27.569 14.0103 29.176C12.8883 28.062 11.9253 26.875 11.1303 25.651ZM13.6723 32.526C13.6713 32.617 13.6583 32.706 13.6583 32.797C13.6583 34.39 13.8733 35.93 14.2383 37.412C12.7253 36.861 11.3113 36.165 10.0323 35.345C11.0923 34.319 12.3123 33.367 13.6723 32.526ZM15.1553 40.247C15.8073 41.804 16.6713 43.247 17.6883 44.568C17.1813 44.603 16.6713 44.64 16.1693 44.64C15.0363 44.64 13.9433 44.542 12.8943 44.376C13.4643 42.98 14.2193 41.589 15.1553 40.247ZM15.9363 17.488C17.3793 17.585 18.8323 17.847 20.2843 18.26C19.0953 19.302 18.0293 20.48 17.1243 21.781C16.5613 20.341 16.1673 18.898 15.9363 17.488ZM22.9793 16.285C23.0493 14.683 23.2843 13.149 23.6663 11.722C24.9833 12.41 26.2593 13.269 27.4583 14.273C25.8663 14.75 24.3703 15.437 22.9793 16.285ZM30.8063 13.588C31.4843 12.263 32.2823 11.045 33.1633 9.952C34.0313 11.059 34.8143 12.292 35.4773 13.631C34.6643 13.527 33.8423 13.454 33.0013 13.454C32.2573 13.454 31.5273 13.506 30.8063 13.588ZM38.8033 14.346C39.9593 13.398 41.1713 12.582 42.4183 11.929C42.7713 13.304 42.9893 14.771 43.0553 16.304C41.7293 15.494 40.3123 14.822 38.8033 14.346ZM45.9023 18.427C47.3673 18.028 48.8353 17.786 50.2903 17.706C50.0403 19.119 49.6253 20.563 49.0413 22.001C48.1493 20.679 47.0843 19.489 45.9023 18.427ZM50.5973 24.813C52.1393 25.036 53.6173 25.41 54.9963 25.925C54.1683 27.168 53.1733 28.354 52.0333 29.451C51.7473 27.825 51.2623 26.272 50.5973 24.813ZM50.7643 40.436C51.6943 41.801 52.4383 43.212 52.9953 44.626C52.0283 44.769 51.0263 44.851 49.9903 44.851C49.3863 44.851 48.7753 44.818 48.1643 44.768C49.2073 43.449 50.0893 41.999 50.7643 40.436ZM52.3423 32.797C52.3423 32.781 52.3403 32.767 52.3403 32.751C53.6853 33.603 54.9043 34.572 55.9703 35.631C54.6853 36.431 53.2523 37.119 51.6993 37.661C52.1043 36.104 52.3423 34.48 52.3423 32.797ZM52.5013 31.078C54.0403 29.692 55.3513 28.145 56.4063 26.513C57.7803 27.156 59.0333 27.937 60.1063 28.855C60.6053 29.281 61.0373 29.73 61.4353 30.188C60.4963 31.852 59.0603 33.427 57.2363 34.774C55.8773 33.386 54.2843 32.131 52.5013 31.078ZM55.9123 12.456C57.0613 13.735 57.6793 15.408 57.7573 17.32C56.0643 16.64 54.1113 16.246 51.9913 16.18C52.1763 14.02 52.0093 11.958 51.4923 10.133C53.2993 10.442 54.8083 11.228 55.9123 12.456ZM51.8083 17.674C54.0193 17.726 56.0273 18.161 57.6963 18.919C57.6383 19.453 57.5563 19.996 57.4213 20.556C57.0893 21.929 56.5313 23.296 55.7943 24.621C54.0423 23.939 52.1393 23.468 50.1523 23.237C50.9713 21.383 51.5153 19.505 51.8083 17.674ZM49.8953 9.991C50.5073 11.806 50.7183 13.933 50.4993 16.197C48.5383 16.278 46.5543 16.616 44.5863 17.236C44.5833 15.132 44.2943 13.126 43.7873 11.274C45.7593 10.434 47.7683 9.982 49.6833 9.982C49.7553 9.982 49.8233 9.99 49.8953 9.991ZM42.8133 4.38C43.8453 4.38 44.8253 4.587 45.7273 4.995C47.2663 5.693 48.4553 6.925 49.2753 8.506C47.3303 8.563 45.3163 9.018 43.3383 9.842C42.6413 7.875 41.6813 6.133 40.5173 4.714C41.2873 4.501 42.0563 4.38 42.8133 4.38ZM41.9863 10.475C40.3143 11.321 38.6913 12.414 37.1873 13.741C36.3603 11.902 35.3353 10.238 34.1733 8.787C35.6603 7.214 37.3243 6 39.0273 5.247C40.2633 6.625 41.2803 8.409 41.9863 10.475ZM33.0163 2.25C34.7723 2.25 36.4233 2.927 37.8623 4.11C36.2053 4.925 34.6143 6.126 33.1773 7.629C31.7083 6.051 30.0703 4.801 28.3603 3.964C29.7543 2.875 31.3363 2.25 33.0163 2.25ZM27.1563 5.079C28.9223 5.844 30.6423 7.118 32.1683 8.775C30.9853 10.212 29.9373 11.864 29.0883 13.692C27.5343 12.287 25.8523 11.138 24.1173 10.258C24.8493 8.199 25.8953 6.431 27.1563 5.079ZM20.6593 4.838C21.5373 4.453 22.4873 4.258 23.4833 4.258C24.1943 4.258 24.9153 4.367 25.6373 4.556C24.4603 5.951 23.4843 7.676 22.7673 9.626C20.8693 8.833 18.9383 8.386 17.0643 8.308C17.9053 6.736 19.1103 5.518 20.6593 4.838ZM16.4293 9.777C16.4503 9.777 16.4693 9.775 16.4903 9.775C18.3533 9.775 20.3433 10.236 22.2993 11.069C21.7733 12.917 21.4753 14.929 21.4543 17.037C19.5553 16.43 17.6413 16.081 15.7463 15.979C15.5553 13.711 15.7943 11.585 16.4293 9.777ZM16.0053 23.024C13.9893 23.233 12.0883 23.693 10.3533 24.348C9.31131 22.427 8.68631 20.467 8.50931 18.622C10.1923 17.881 12.2063 17.462 14.4193 17.438C14.6883 19.273 15.2093 21.159 16.0053 23.024ZM10.3783 12.168C11.4963 10.957 13.0163 10.193 14.8283 9.907C14.2893 11.724 14.0973 13.782 14.2543 15.943C12.1153 15.981 10.1563 16.34 8.46231 16.989C8.56831 15.131 9.18931 13.459 10.3783 12.168ZM3.78531 23.375C4.32531 21.742 5.49631 20.374 7.10931 19.362C7.36531 21.184 7.99931 23.075 8.97831 24.925C7.00431 25.839 5.29231 27.009 3.96131 28.368C3.33531 26.654 3.26631 24.946 3.78531 23.375ZM4.70831 40.58C3.37431 39.247 2.52831 37.663 2.36431 35.922C2.20731 34.245 2.68331 32.608 3.64231 31.115C3.88931 31.516 4.16131 31.915 4.46031 32.309C5.37131 33.507 6.49031 34.604 7.76231 35.584C6.40031 37.166 5.36331 38.865 4.70831 40.58ZM10.1213 51.501C8.43931 50.819 7.10831 49.746 6.29131 48.317C5.41431 46.782 5.18731 44.999 5.50931 43.149C7.03531 44.183 8.87031 44.983 10.9133 45.496C10.2763 47.564 10.0033 49.61 10.1213 51.501ZM5.90731 41.618C6.48931 39.86 7.53331 38.091 8.97631 36.451C10.5453 37.487 12.3053 38.349 14.1983 38.995C13.0073 40.633 12.0793 42.353 11.4063 44.081C9.27331 43.567 7.39431 42.72 5.90731 41.618ZM12.3723 45.804C13.5863 46.016 14.8543 46.139 16.1693 46.139C16.8973 46.139 17.6383 46.103 18.3713 46.035C17.9313 48.086 17.7893 50.102 17.8923 52.014C16.8113 52.222 15.7393 52.339 14.7003 52.339C13.6103 52.339 12.5943 52.212 11.6503 51.989C11.4383 50.089 11.6813 47.968 12.3723 45.804ZM19.1793 59.162C17.4423 59.162 15.9263 58.691 14.6723 57.761C13.3163 56.754 12.4143 55.299 11.9453 53.581C12.8183 53.742 13.7333 53.84 14.7003 53.84C15.7853 53.84 16.9033 53.721 18.0283 53.513C18.2943 55.59 18.8663 57.503 19.7073 59.14C19.5313 59.15 19.3543 59.162 19.1793 59.162ZM21.2793 58.939C20.3583 57.328 19.7383 55.364 19.4843 53.189C21.3143 52.712 23.1393 51.981 24.8683 51.016C25.2893 52.988 25.9473 54.837 26.7893 56.502C25.0113 57.731 23.1293 58.568 21.2793 58.939ZM27.9573 63.281C27.4723 63.281 26.9873 63.229 26.5163 63.128C24.7963 62.756 23.3233 61.741 22.1653 60.275C23.9763 59.824 25.7943 58.985 27.5183 57.816C28.6293 59.664 29.9733 61.23 31.4583 62.411C30.3233 62.968 29.1423 63.281 27.9573 63.281ZM32.8343 61.592C31.2763 60.476 29.8633 58.879 28.7193 56.931C30.2343 55.734 31.6533 54.285 32.8933 52.619C34.1133 54.303 35.5113 55.768 37.0083 56.983C35.8393 58.914 34.4053 60.496 32.8343 61.592ZM39.1413 63.208C38.6973 63.298 38.2413 63.344 37.7863 63.344C36.5843 63.344 35.3913 63.025 34.2483 62.453C35.7483 61.297 37.1033 59.747 38.2303 57.904C39.9323 59.087 41.7303 59.941 43.5273 60.411C42.3513 61.861 40.8653 62.857 39.1413 63.208ZM44.4323 59.079C42.6083 58.68 40.7403 57.815 38.9783 56.575C39.8253 54.928 40.4943 53.091 40.9403 51.117C42.6593 52.106 44.4733 52.86 46.2943 53.359C46.0143 55.527 45.3713 57.481 44.4323 59.079ZM51.0493 57.987C49.8133 58.881 48.3293 59.334 46.6403 59.334C46.4283 59.334 46.2133 59.321 45.9973 59.306C46.8593 57.679 47.4553 55.774 47.7473 53.7C48.9413 53.936 50.1283 54.069 51.2803 54.069C52.1723 54.069 53.0173 53.98 53.8293 53.84C53.3393 55.553 52.4193 56.997 51.0493 57.987ZM54.1423 52.259C53.2523 52.457 52.2973 52.568 51.2803 52.568C50.1813 52.568 49.0453 52.439 47.9023 52.204C48.0293 50.293 47.9133 48.275 47.4993 46.218C48.3303 46.306 49.1683 46.351 49.9923 46.351C51.2093 46.351 52.3803 46.248 53.5043 46.071C54.1653 48.241 54.3793 50.363 54.1423 52.259ZM51.7593 39.23C53.6853 38.599 55.4463 37.748 57.0033 36.742C57.9933 37.897 58.8163 39.13 59.4163 40.413C59.6573 40.928 59.8433 41.438 60.0053 41.944C58.5053 43.028 56.6183 43.855 54.4843 44.345C53.8333 42.61 52.9283 40.881 51.7593 39.23ZM59.5493 48.65C58.7163 50.065 57.3703 51.122 55.6793 51.784C55.8203 49.9 55.5743 47.856 54.9673 45.786C57.0203 45.309 58.8643 44.549 60.3953 43.547C60.6903 45.425 60.4163 47.177 59.5493 48.65ZM63.6283 36.305C63.4443 38.026 62.5833 39.593 61.2393 40.906C61.1003 40.531 60.9513 40.155 60.7753 39.778C60.1373 38.415 59.2753 37.106 58.2393 35.879C59.9693 34.571 61.3913 33.068 62.4023 31.463C63.3753 33.006 63.8043 34.661 63.6283 36.305Z" fill="black"/>
</svg>
